<svg width="84" height="80" viewBox="0 0 84 80" fill="none" xmlns="http://www.w3.org/2000/svg">
<path d="M12.9057 40.5448C12.255 40.5999 11.6585 40.3247 11.0078 40.1045C7.59159 38.9487 4.12115 37.7928 0.704933 36.637C0.488031 36.5269 0.325354 36.4719 0.162677 36.3068C-0.0542256 36.1417 -0.0542256 35.9215 0.162677 35.7564C0.325354 35.6463 0.542256 35.4812 0.759159 35.4261C4.4465 34.3253 8.07962 33.2245 11.767 32.0687C12.5803 31.7935 13.448 31.7935 14.3156 32.0687C17.9487 33.1695 21.5818 34.2703 25.2149 35.3711C25.4318 35.4812 25.6487 35.5362 25.8656 35.7013C26.1367 35.8665 26.1367 36.1417 25.8656 36.3068C25.7029 36.4169 25.5403 36.5269 25.3234 36.582C21.6902 37.7928 18.0571 39.0588 14.3698 40.2696C13.8818 40.4898 13.448 40.5448 12.9057 40.5448Z" fill="#E26E43"/>
<path d="M4.99943 40.5716C4.45384 40.4711 4.34473 40.7727 4.34473 41.0241V44.8452C4.34473 45.2977 4.5084 45.549 4.83575 45.8507C4.94487 45.9513 5.10854 46.0518 5.21766 46.1524C6.09059 46.7054 7.1272 47.0573 8.16381 47.3087C10.237 47.8115 12.3102 47.9121 14.438 47.6607C15.802 47.5098 17.1659 47.1579 18.4208 46.6551C18.9664 46.4037 19.5119 46.1524 19.8939 45.7501C20.1666 45.4988 20.2758 45.2474 20.2212 44.8954C20.2758 43.6888 20.2758 42.4319 20.2758 41.1749C20.2758 40.4711 19.7302 40.5716 19.5119 40.6219C17.6024 41.2252 15.5837 41.7783 13.6742 42.3816C12.6922 42.6832 11.7647 42.6832 10.8372 42.3816L4.99943 40.5716Z" fill="#E26E43"/>
<path d="M24.2351 39.3045C24.0901 39.3572 24.0418 39.4099 24.0418 39.6206V43.2024C24.0418 43.3077 23.9934 43.4658 23.9451 43.5711C23.7035 44.2032 23.4618 44.8353 23.2685 45.4673C23.0752 46.0468 23.1719 46.6788 23.5585 47.1002C23.6551 47.2582 23.8485 47.4163 23.9934 47.5216C24.1384 47.6796 24.3801 47.7323 24.5734 47.785C24.9117 47.8377 25.2016 47.627 25.4433 47.4163C25.5399 47.3109 25.6849 47.2056 25.7816 47.0476C26.0715 46.6262 26.1198 46.0994 26.0232 45.6254C25.8782 44.8879 25.5882 44.2559 25.2983 43.6238C25.2016 43.5184 25.2016 43.3077 25.2016 43.2024C25.2016 41.8855 25.2016 40.6214 25.2016 39.3045C25.2016 39.0412 25.0083 39.0938 24.9117 39.1465L24.2351 39.3045Z" fill="#E26E43"/>
<path d="M43.4913 29.974V33.1521H36.7499V37.1488H43.2987V40.3269H36.7499V46.8276H33.4273V29.974H43.4913ZM48.8738 46.8276H45.7679V29.2517H48.8738V46.8276ZM61.9732 45.3349C60.7533 46.5548 59.2445 47.1647 57.4468 47.1647C55.6491 47.1647 54.1403 46.5548 52.9204 45.3349C51.7005 44.115 51.0905 42.6062 51.0905 40.8085C51.0905 39.0268 51.7005 37.526 52.9204 36.3061C54.1563 35.0702 55.6651 34.4522 57.4468 34.4522C59.2285 34.4522 60.7373 35.0702 61.9732 36.3061C63.2091 37.5421 63.8271 39.0428 63.8271 40.8085C63.8271 42.5901 63.2091 44.0989 61.9732 45.3349ZM55.1113 43.1921C55.7373 43.8181 56.5158 44.131 57.4468 44.131C58.3777 44.131 59.1562 43.8181 59.7822 43.1921C60.4082 42.5661 60.7212 41.7715 60.7212 40.8085C60.7212 39.8454 60.4082 39.0509 59.7822 38.4249C59.1562 37.7989 58.3777 37.4859 57.4468 37.4859C56.5158 37.4859 55.7373 37.7989 55.1113 38.4249C54.5014 39.0669 54.1964 39.8615 54.1964 40.8085C54.1964 41.7555 54.5014 42.55 55.1113 43.1921ZM77.0505 42.2049L79.097 34.7893H82.3955L78.5673 46.8276H75.6059L73.3908 39.5324L71.1758 46.8276H68.2143L64.3861 34.7893H67.6846L69.7312 42.1808L71.9221 34.7893H74.8595L77.0505 42.2049Z" fill="#E26E43"/>
</svg>
