<svg width="29" height="29" viewBox="0 0 29 29" fill="none" xmlns="http://www.w3.org/2000/svg">
<g clip-path="url(#clip0_77_845)">
<circle cx="14.5" cy="14.5" r="14.5" fill="#202226"/>
<path fill-rule="evenodd" clip-rule="evenodd" d="M3.625 24.091V23.5623C3.625 19.9464 10.8705 18.1248 14.5 18.1248C18.1295 18.1248 25.375 19.9464 25.375 23.5623V24.091C22.7181 27.1012 18.8308 28.9998 14.5 28.9998C10.1692 28.9998 6.28192 27.1012 3.625 24.091ZM14.5 6.0415C11.4958 6.0415 9.0625 8.47479 9.0625 11.479C9.0625 14.4832 11.4958 16.9165 14.5 16.9165C17.5042 16.9165 19.9375 14.4832 19.9375 11.479C19.9375 8.47479 17.5042 6.0415 14.5 6.0415Z" fill="white"/>
</g>
<circle cx="14.5" cy="14.5" r="14" stroke="#202226"/>
<defs>
<clipPath id="clip0_77_845">
<rect width="29" height="29" fill="white"/>
</clipPath>
</defs>
</svg>
