<svg width="31" height="18" viewBox="0 0 31 18" fill="none" xmlns="http://www.w3.org/2000/svg">
<path fill-rule="evenodd" clip-rule="evenodd" d="M30.2887 1.65113C30.5042 0.987584 30.2887 0.5 29.2631 0.5H25.8717C25.0094 0.5 24.6118 0.921199 24.3963 1.38565C24.3963 1.38565 22.6715 5.26737 20.2283 7.78875C19.4379 8.51866 19.0786 8.75095 18.6474 8.75095C18.4318 8.75095 18.1084 8.51866 18.1084 7.85517V1.65113C18.1084 0.854875 17.8696 0.5 17.1509 0.5H11.8215C11.2826 0.5 10.9586 0.869556 10.9586 1.2198C10.9586 1.97464 12.1801 2.14872 12.306 4.27207V8.88367C12.306 9.89469 12.1083 10.078 11.6771 10.078C10.5274 10.078 7.73072 6.179 6.07204 1.71746C5.74698 0.850285 5.42095 0.5 4.5542 0.5H1.16278C0.193807 0.5 0 0.921199 0 1.38565C0 2.21511 1.14977 6.32905 5.3535 11.77C8.15597 15.4857 12.1045 17.5 15.6974 17.5C17.8532 17.5 18.1199 17.0527 18.1199 16.2821V13.4737C18.1199 12.579 18.3241 12.4004 19.0068 12.4004C19.5097 12.4004 20.3721 12.6327 22.3841 14.4242C24.6836 16.5475 25.0628 17.5 26.3561 17.5H29.7476C30.7165 17.5 31.201 17.0527 30.9215 16.1697C30.6156 15.2899 29.5178 14.0133 28.0611 12.4999C27.2706 11.6373 26.0848 10.7084 25.7255 10.2438C25.2225 9.64673 25.3663 9.38129 25.7255 8.85052C25.7255 8.85052 29.8576 3.47581 30.2887 1.65113Z" fill="#F3F3EB"/>
</svg>
