<svg width="22" height="22" viewBox="0 0 22 22" fill="none" xmlns="http://www.w3.org/2000/svg">
<path d="M21.7502 18.0818V18.077C21.7502 18.077 17.5818 13.9211 17.5793 13.9191C17.2488 13.5891 16.7203 13.5962 16.3951 13.9213L14.4765 15.8443C13.7306 16.5891 12.7688 15.9282 10.9226 14.4256C9.7011 13.4314 8.29573 12.0945 7.0772 10.5872C6.22205 9.52968 5.46585 8.41911 6.24707 7.63951C6.24909 7.63749 8.17362 5.72143 8.17325 5.71941L8.17472 5.71537C8.52009 5.37064 8.48662 4.84252 8.17123 4.52734V4.52256C8.17123 4.52256 3.88246 0.246955 3.88007 0.244385C3.5496 -0.0854826 3.02125 -0.07814 2.69593 0.246588L0.763121 2.17586C-0.0331728 3.1706 -1.80286 7.91155 5.784 15.6742C13.7764 23.8522 18.9337 22.1028 19.8216 21.18C19.8216 21.18 21.7524 19.2755 21.7524 19.2737L21.754 19.2699C22.0994 18.9249 22.0654 18.3972 21.7502 18.0818Z" fill="#F3F3EB"/>
</svg>
