<svg width="286" height="154" viewBox="0 0 286 154" fill="none" xmlns="http://www.w3.org/2000/svg">
<path fill-rule="evenodd" clip-rule="evenodd" d="M48.3108 154C47.3634 144.248 46.8896 133.144 46.8896 120.688C46.8896 92.5439 49.0918 71.7041 53.4961 58.1689C57.9004 44.6338 66.9238 37.8662 80.5664 37.8662C94.209 37.8662 103.125 44.6338 107.314 58.1689C111.611 71.7041 113.76 92.5439 113.76 120.688C113.76 133.144 113.298 144.248 112.373 154H159.398C160.555 143.748 161.133 132.644 161.133 120.688C161.133 82.124 155.117 52.3682 143.086 31.4209C131.162 10.4736 110.322 0 80.5664 0C50.8105 0 29.917 10.4736 17.8857 31.4209C5.96191 52.3682 0 82.124 0 120.688C0 132.644 0.572999 143.748 1.719 154H48.3108ZM285.057 154V1.61133H246.868C246.868 3.65234 246.278 6.76758 245.096 10.957C243.055 17.9395 240.047 23.5254 236.072 27.7148C230.272 33.8379 222.752 37.9199 213.514 39.9609C207.713 41.25 197.562 42.2168 183.06 42.8613V74.1211H238.006V154H285.057Z" fill="#B7B7B7"/>
</svg>
