<svg width="331" height="154" viewBox="0 0 331 154" fill="none" xmlns="http://www.w3.org/2000/svg">
<path fill-rule="evenodd" clip-rule="evenodd" d="M48.3108 154C47.3634 144.248 46.8896 133.144 46.8896 120.688C46.8896 92.5439 49.0918 71.7041 53.4961 58.1689C57.9004 44.6338 66.9238 37.8662 80.5664 37.8662C94.209 37.8662 103.125 44.6338 107.314 58.1689C111.611 71.7041 113.76 92.5439 113.76 120.688C113.76 133.144 113.298 144.248 112.373 154H159.398C160.555 143.748 161.133 132.644 161.133 120.688C161.133 82.124 155.117 52.3682 143.086 31.4209C131.162 10.4736 110.322 0 80.5664 0C50.8105 0 29.917 10.4736 17.8857 31.4209C5.96191 52.3682 0 82.124 0 120.688C0 132.644 0.572999 143.748 1.719 154H48.3108ZM277.395 154L281.19 151.304C296.658 140.347 307.777 130.41 314.544 121.494C324.857 108.066 330.013 92.7051 330.013 75.4102C330.013 52.8516 322.708 34.751 308.099 21.1084C293.489 7.3584 273.831 0.483398 249.124 0.483398C217.864 0.483398 196.112 12.1387 183.865 35.4492C177.42 47.6953 173.821 63.7549 173.07 83.6279H217.703C218.24 70.5225 219.959 60.9619 222.86 54.9463C227.908 44.5264 237.415 39.3164 251.38 39.3164C261.585 39.3164 269.427 42.5928 274.905 49.1455C280.384 55.6982 283.123 63.916 283.123 73.7988C283.123 85.9375 278.343 97.1094 268.782 107.314C262.552 113.867 248.856 124.717 227.694 139.863C220.994 144.644 214.967 149.357 209.614 154H277.395Z" fill="#B7B7B7"/>
</svg>
