<svg width="330" height="154" viewBox="0 0 330 154" fill="none" xmlns="http://www.w3.org/2000/svg">
<path fill-rule="evenodd" clip-rule="evenodd" d="M48.3108 154C47.3634 144.248 46.8896 133.144 46.8896 120.688C46.8896 92.5439 49.0918 71.7041 53.4961 58.1689C57.9004 44.6338 66.9238 37.8662 80.5664 37.8662C94.209 37.8662 103.125 44.6338 107.314 58.1689C111.611 71.7041 113.76 92.5439 113.76 120.688C113.76 133.144 113.298 144.248 112.373 154H159.398C160.555 143.748 161.133 132.644 161.133 120.688C161.133 82.124 155.117 52.3682 143.086 31.4209C131.162 10.4736 110.322 0 80.5664 0C50.8105 0 29.917 10.4736 17.8857 31.4209C5.96191 52.3682 0 82.124 0 120.688C0 132.644 0.572999 143.748 1.719 154H48.3108ZM329.55 154C327.462 140.982 321.923 130.308 312.933 121.978C305.091 114.78 299.075 111.182 294.886 111.182C300.472 109.033 305.843 105.005 310.999 99.0967C319.163 89.6436 323.245 78.042 323.245 64.292C323.245 44.8486 316.37 29.3799 302.62 17.8857C288.978 6.28418 270.985 0.483398 248.641 0.483398C236.61 0.483398 226.458 1.93359 218.187 4.83398C209.915 7.73438 202.772 11.9238 196.756 17.4023C188.699 25.1367 182.791 33.5693 179.031 42.7002C175.487 53.1201 173.499 64.1309 173.07 75.7324H215.931C215.716 64.2383 218.133 55.0537 223.182 48.1787C228.338 41.3037 236.341 37.8662 247.191 37.8662C256.644 37.8662 263.948 40.6592 269.105 46.2451C274.368 51.8311 277 59.082 277 67.998C277 81.748 271.898 90.8789 261.693 95.3906C255.784 98.0762 245.364 99.5264 230.433 99.7412V132.612C245.687 132.612 256.859 134.062 263.948 136.963C272.228 140.389 277.757 146.068 280.536 154H329.55Z" fill="#B7B7B7"/>
</svg>
