<svg width="475" height="765" viewBox="0 0 475 765" fill="none" xmlns="http://www.w3.org/2000/svg">
<g filter="url(#filter0_f_311_3844)">
<path d="M146.961 500.309C105.79 572.197 30.4747 569.578 -41.4132 528.407C-76.0663 508.56 -200.176 503.551 -206.189 459.966C-212.651 413.135 -85.0373 409.398 -63.7125 372.163C-22.5415 300.275 34.486 166.811 106.374 207.982C140.175 227.34 85.0803 356.295 98.7042 379.328C114.055 405.282 168.773 462.222 146.961 500.309Z" fill="#F08D6E" fill-opacity="0.9"/>
</g>
<g filter="url(#filter1_f_311_3844)">
<path d="M270.995 528.465C245.024 573.811 197.521 572.162 152.181 546.196C130.325 533.678 52.0461 530.523 48.2549 503.031C44.1812 473.492 124.671 471.13 138.122 447.642C164.093 402.296 200.067 318.108 245.407 344.074C266.725 356.284 231.971 437.627 240.563 452.156C250.244 468.526 284.754 504.44 270.995 528.465Z" fill="#F8CE0E" fill-opacity="0.8"/>
</g>
<defs>
<filter id="filter0_f_311_3844" x="-406.426" y="0.259766" width="758.456" height="757.04" filterUnits="userSpaceOnUse" color-interpolation-filters="sRGB">
<feFlood flood-opacity="0" result="BackgroundImageFix"/>
<feBlend mode="normal" in="SourceGraphic" in2="BackgroundImageFix" result="shape"/>
<feGaussianBlur stdDeviation="100" result="effect1_foregroundBlur_311_3844"/>
</filter>
<filter id="filter1_f_311_3844" x="-151.895" y="139.205" width="626.087" height="625.212" filterUnits="userSpaceOnUse" color-interpolation-filters="sRGB">
<feFlood flood-opacity="0" result="BackgroundImageFix"/>
<feBlend mode="normal" in="SourceGraphic" in2="BackgroundImageFix" result="shape"/>
<feGaussianBlur stdDeviation="100" result="effect1_foregroundBlur_311_3844"/>
</filter>
</defs>
</svg>
