<svg width="1920" height="345" viewBox="0 0 1920 345" fill="none" xmlns="http://www.w3.org/2000/svg">
<path d="M-299 177L88.5711 22.2823C121.308 9.21371 156.235 2.5 191.484 2.5H229.705C306.404 2.5 377.137 43.8803 414.722 110.739V110.739C456.969 185.891 540.477 228.022 626.026 217.344L832.362 191.59C882.758 185.3 933.925 191.906 981.07 210.79L1162.42 283.431C1205.23 300.579 1251.42 307.627 1297.4 304.026L1450.58 292.028C1505.11 287.757 1557.43 268.662 1601.89 236.806L1605.29 234.37C1713.05 157.152 1858.73 159.827 1963.59 240.948L2095.5 343" stroke="#B4B4B4" stroke-width="4" stroke-linecap="round" stroke-linejoin="round" stroke-dasharray="16 16"/>
</svg>
